<?xml version="1.0" encoding="utf-8" standalone="no"?>
<!DOCTYPE svg PUBLIC "-//W3C//DTD SVG 1.1//EN"
  "http://www.w3.org/Graphics/SVG/1.1/DTD/svg11.dtd">
<svg xmlns:xlink="http://www.w3.org/1999/xlink" width="173.14737pt" height="39.7905pt" viewBox="0 0 173.14737 39.7905" xmlns="http://www.w3.org/2000/svg" version="1.1">
 <metadata>
  <rdf:RDF xmlns:dc="http://purl.org/dc/elements/1.1/" xmlns:cc="http://creativecommons.org/ns#" xmlns:rdf="http://www.w3.org/1999/02/22-rdf-syntax-ns#">
   <cc:Work>
    <dc:type rdf:resource="http://purl.org/dc/dcmitype/StillImage"/>
    <dc:date>2026-09-16T00:24:54.190217</dc:date>
    <dc:format>image/svg+xml</dc:format>
    <dc:creator>
     <cc:Agent>
      <dc:title>Matplotlib v3.11.2, https://matplotlib.org/</dc:title>
     </cc:Agent>
    </dc:creator>
   </cc:Work>
  </rdf:RDF>
 </metadata>
 <defs>
  <style type="text/css">*{stroke-linejoin: round; stroke-linecap: butt}</style>
 </defs>
 <g id="figure_1">
  <g id="patch_1">
   <path d="M 0 39.7905 
L 173.14737 39.7905 
L 173.14737 0 
L 0 0 
L 0 39.7905 
z
" style="fill: none"/>
  </g>
  <g id="axes_1">
   <g id="text_1">
    <!-- Smart  -->
    <g style="fill: #1b1c1c" transform="translate(12.78 26.7825) scale(0.24 -0.24)">
     <defs>
      <path id="DejaVuSans-Bold-36" d="M 3834 4519 
L 3834 3531 
Q 3450 3703 3084 3790 
Q 2719 3878 2394 3878 
Q 1963 3878 1756 3759 
Q 1550 3641 1550 3391 
Q 1550 3203 1689 3098 
Q 1828 2994 2194 2919 
L 2706 2816 
Q 3484 2659 3812 2340 
Q 4141 2022 4141 1434 
Q 4141 663 3683 286 
Q 3225 -91 2284 -91 
Q 1841 -91 1394 -6 
Q 947 78 500 244 
L 500 1259 
Q 947 1022 1364 901 
Q 1781 781 2169 781 
Q 2563 781 2772 912 
Q 2981 1044 2981 1288 
Q 2981 1506 2839 1625 
Q 2697 1744 2272 1838 
L 1806 1941 
Q 1106 2091 782 2419 
Q 459 2747 459 3303 
Q 459 4000 909 4375 
Q 1359 4750 2203 4750 
Q 2588 4750 2994 4692 
Q 3400 4634 3834 4519 
z
" transform="scale(0.015625)"/>
      <path id="DejaVuSans-Bold-50" d="M 3781 2919 
Q 3994 3244 4286 3414 
Q 4578 3584 4928 3584 
Q 5531 3584 5847 3212 
Q 6163 2841 6163 2131 
L 6163 0 
L 5038 0 
L 5038 1825 
Q 5041 1866 5042 1909 
Q 5044 1953 5044 2034 
Q 5044 2406 4934 2573 
Q 4825 2741 4581 2741 
Q 4263 2741 4089 2478 
Q 3916 2216 3909 1719 
L 3909 0 
L 2784 0 
L 2784 1825 
Q 2784 2406 2684 2573 
Q 2584 2741 2328 2741 
Q 2006 2741 1831 2477 
Q 1656 2213 1656 1722 
L 1656 0 
L 531 0 
L 531 3500 
L 1656 3500 
L 1656 2988 
Q 1863 3284 2130 3434 
Q 2397 3584 2719 3584 
Q 3081 3584 3359 3409 
Q 3638 3234 3781 2919 
z
" transform="scale(0.015625)"/>
      <path id="DejaVuSans-Bold-44" d="M 2106 1575 
Q 1756 1575 1579 1456 
Q 1403 1338 1403 1106 
Q 1403 894 1545 773 
Q 1688 653 1941 653 
Q 2256 653 2472 879 
Q 2688 1106 2688 1447 
L 2688 1575 
L 2106 1575 
z
M 3816 1997 
L 3816 0 
L 2688 0 
L 2688 519 
Q 2463 200 2181 54 
Q 1900 -91 1497 -91 
Q 953 -91 614 226 
Q 275 544 275 1050 
Q 275 1666 698 1953 
Q 1122 2241 2028 2241 
L 2688 2241 
L 2688 2328 
Q 2688 2594 2478 2717 
Q 2269 2841 1825 2841 
Q 1466 2841 1156 2769 
Q 847 2697 581 2553 
L 581 3406 
Q 941 3494 1303 3539 
Q 1666 3584 2028 3584 
Q 2975 3584 3395 3211 
Q 3816 2838 3816 1997 
z
" transform="scale(0.015625)"/>
      <path id="DejaVuSans-Bold-55" d="M 3138 2547 
Q 2991 2616 2845 2648 
Q 2700 2681 2553 2681 
Q 2122 2681 1889 2404 
Q 1656 2128 1656 1613 
L 1656 0 
L 538 0 
L 538 3500 
L 1656 3500 
L 1656 2925 
Q 1872 3269 2151 3426 
Q 2431 3584 2822 3584 
Q 2878 3584 2943 3579 
Q 3009 3575 3134 3559 
L 3138 2547 
z
" transform="scale(0.015625)"/>
      <path id="DejaVuSans-Bold-57" d="M 1759 4494 
L 1759 3500 
L 2913 3500 
L 2913 2700 
L 1759 2700 
L 1759 1216 
Q 1759 972 1856 886 
Q 1953 800 2241 800 
L 2816 800 
L 2816 0 
L 1856 0 
Q 1194 0 917 276 
Q 641 553 641 1216 
L 641 2700 
L 84 2700 
L 84 3500 
L 641 3500 
L 641 4494 
L 1759 4494 
z
" transform="scale(0.015625)"/>
      <path id="DejaVuSans-Bold-3" transform="scale(0.015625)"/>
     </defs>
     <use xlink:href="#DejaVuSans-Bold-36"/>
     <use xlink:href="#DejaVuSans-Bold-50" transform="translate(72.015625 0)"/>
     <use xlink:href="#DejaVuSans-Bold-44" transform="translate(176.21875 0)"/>
     <use xlink:href="#DejaVuSans-Bold-55" transform="translate(243.703125 0)"/>
     <use xlink:href="#DejaVuSans-Bold-57" transform="translate(293.015625 0)"/>
     <use xlink:href="#DejaVuSans-Bold-3" transform="translate(340.8125 0)"/>
    </g>
   </g>
   <g id="text_2">
    <path d="M 108.9 27.07125 
Q 106.26 27.07125 104.83125 25.8375 
Q 103.4025 24.6 103.4025 22.15125 
Q 103.4025 19.1025 105.43125 16.2 
Q 107.46 13.29375 110.61375 11.47125 
Q 113.77125 9.645 116.94 9.645 
Q 118.21125 9.645 119.4825 9.87375 
Q 120.7575 10.1025 121.3425 10.66875 
Q 121.93125 11.23125 121.09125 12.165 
L 120.8775 12.405 
Q 118.45125 9.5025 114.585 10.2825 
Q 110.7225 11.0625 107.745 14.44875 
Q 104.77125 17.83125 104.77125 21.765 
Q 104.77125 24.93375 107.28 25.89375 
Q 109.78875 26.85375 113.17125 25.4625 
Q 116.5575 24.07125 118.8825 20.88 
L 119.0025 20.95125 
Q 114.73125 27.07125 108.9 27.07125 
z
" style="fill: #316948; stroke: #316948; stroke-width: 0.5"/>
    <path d="M 108.9 27.07125 
Q 106.26 27.07125 104.83125 25.8375 
Q 103.4025 24.6 103.4025 22.15125 
Q 103.4025 19.1025 105.43125 16.2 
Q 107.46 13.29375 110.61375 11.47125 
Q 113.77125 9.645 116.94 9.645 
Q 118.21125 9.645 119.4825 9.87375 
Q 120.7575 10.1025 121.3425 10.66875 
Q 121.93125 11.23125 121.09125 12.165 
L 120.8775 12.405 
Q 118.45125 9.5025 114.585 10.2825 
Q 110.7225 11.0625 107.745 14.44875 
Q 104.77125 17.83125 104.77125 21.765 
Q 104.77125 24.93375 107.28 25.89375 
Q 109.78875 26.85375 113.17125 25.4625 
Q 116.5575 24.07125 118.8825 20.88 
L 119.0025 20.95125 
Q 114.73125 27.07125 108.9 27.07125 
z
" style="fill: #316948"/>
   </g>
   <g id="text_3">
    <path d="M 121.9257 27.07125 
Q 120.07695 27.07125 119.17695 25.8 
Q 118.27695 24.525 118.39695 22.63125 
Q 118.51695 20.73375 119.5707 19.03125 
Q 120.81945 16.99125 122.7507 15.6825 
Q 124.6857 14.37375 126.55695 14.37375 
Q 128.3307 14.37375 129.2532 15.63375 
Q 130.17945 16.89375 130.05945 18.8025 
Q 129.93945 20.71125 128.85945 22.4625 
Q 127.6107 24.5025 125.6907 25.78875 
Q 123.7707 27.07125 121.9257 27.07125 
z
M 119.25945 24.285 
Q 119.25945 25.41375 119.94195 26.14875 
Q 120.6282 26.88 121.65945 26.88 
Q 123.45945 26.88 125.19945 25.30875 
Q 126.93945 23.73375 128.0532 21.45375 
Q 129.1707 19.17375 129.1707 17.25375 
Q 129.1707 16.005 128.46195 15.3 
Q 127.75695 14.59125 126.69945 14.59125 
Q 124.87695 14.59125 123.1482 16.1775 
Q 121.41945 17.76 120.33945 20.0625 
Q 119.25945 22.365 119.25945 24.285 
z
" style="fill: #316948; stroke: #316948; stroke-width: 0.5"/>
    <path d="M 121.9257 27.07125 
Q 120.07695 27.07125 119.17695 25.8 
Q 118.27695 24.525 118.39695 22.63125 
Q 118.51695 20.73375 119.5707 19.03125 
Q 120.81945 16.99125 122.7507 15.6825 
Q 124.6857 14.37375 126.55695 14.37375 
Q 128.3307 14.37375 129.2532 15.63375 
Q 130.17945 16.89375 130.05945 18.8025 
Q 129.93945 20.71125 128.85945 22.4625 
Q 127.6107 24.5025 125.6907 25.78875 
Q 123.7707 27.07125 121.9257 27.07125 
z
M 119.25945 24.285 
Q 119.25945 25.41375 119.94195 26.14875 
Q 120.6282 26.88 121.65945 26.88 
Q 123.45945 26.88 125.19945 25.30875 
Q 126.93945 23.73375 128.0532 21.45375 
Q 129.1707 19.17375 129.1707 17.25375 
Q 129.1707 16.005 128.46195 15.3 
Q 127.75695 14.59125 126.69945 14.59125 
Q 124.87695 14.59125 123.1482 16.1775 
Q 121.41945 17.76 120.33945 20.0625 
Q 119.25945 22.365 119.25945 24.285 
z
" style="fill: #316948"/>
   </g>
   <g id="text_4">
    <path d="M 130.66026 27.07125 
Q 129.91401 27.07125 129.85401 26.4975 
Q 129.79401 25.92 130.25151 24.93375 
L 136.34526 11.73375 
Q 136.63401 11.11125 136.78776 10.44 
Q 136.94526 9.765 136.94526 9.285 
L 139.51401 7.2225 
L 131.45151 24.91125 
Q 130.97151 25.9425 131.33151 26.19375 
Q 131.69151 26.445 132.56526 25.93125 
Q 133.44276 25.41375 134.23401 24.43125 
L 134.33151 24.5025 
Q 133.49151 25.63125 132.44526 26.35125 
Q 131.40276 27.07125 130.66026 27.07125 
z
" style="fill: #316948; stroke: #316948; stroke-width: 0.5"/>
    <path d="M 130.66026 27.07125 
Q 129.91401 27.07125 129.85401 26.4975 
Q 129.79401 25.92 130.25151 24.93375 
L 136.34526 11.73375 
Q 136.63401 11.11125 136.78776 10.44 
Q 136.94526 9.765 136.94526 9.285 
L 139.51401 7.2225 
L 131.45151 24.91125 
Q 130.97151 25.9425 131.33151 26.19375 
Q 131.69151 26.445 132.56526 25.93125 
Q 133.44276 25.41375 134.23401 24.43125 
L 134.33151 24.5025 
Q 133.49151 25.63125 132.44526 26.35125 
Q 131.40276 27.07125 130.66026 27.07125 
z
" style="fill: #316948"/>
   </g>
   <g id="text_5">
    <path d="M 135.84966 27.07125 
Q 135.10341 27.07125 135.04341 26.4975 
Q 134.98341 25.92 135.44091 24.93375 
L 141.53466 11.73375 
Q 141.82341 11.11125 141.97716 10.44 
Q 142.13466 9.765 142.13466 9.285 
L 144.70341 7.2225 
L 136.64091 24.91125 
Q 136.16091 25.9425 136.52091 26.19375 
Q 136.88091 26.445 137.75466 25.93125 
Q 138.63216 25.41375 139.42341 24.43125 
L 139.52091 24.5025 
Q 138.68091 25.63125 137.63466 26.35125 
Q 136.59216 27.07125 135.84966 27.07125 
z
" style="fill: #316948; stroke: #316948; stroke-width: 0.5"/>
    <path d="M 135.84966 27.07125 
Q 135.10341 27.07125 135.04341 26.4975 
Q 134.98341 25.92 135.44091 24.93375 
L 141.53466 11.73375 
Q 141.82341 11.11125 141.97716 10.44 
Q 142.13466 9.765 142.13466 9.285 
L 144.70341 7.2225 
L 136.64091 24.91125 
Q 136.16091 25.9425 136.52091 26.19375 
Q 136.88091 26.445 137.75466 25.93125 
Q 138.63216 25.41375 139.42341 24.43125 
L 139.52091 24.5025 
Q 138.68091 25.63125 137.63466 26.35125 
Q 136.59216 27.07125 135.84966 27.07125 
z
" style="fill: #316948"/>
   </g>
   <g id="text_6">
    <path d="M 143.19906 27.07125 
Q 142.26156 27.07125 141.68406 26.2575 
Q 141.11031 25.44 141.03906 24.045 
Q 140.94156 21.67125 142.19031 19.41375 
Q 143.46156 17.1825 145.50156 15.78 
Q 147.54156 14.37375 149.51031 14.37375 
Q 150.49281 14.37375 151.21281 14.82 
Q 151.93281 15.2625 152.17281 16.32 
L 154.11906 14.37375 
L 149.94156 23.49375 
Q 149.15031 25.17375 149.61531 26.08875 
Q 150.08406 27 151.88406 27 
L 151.91031 27.07125 
Q 149.51031 27.07125 148.93281 25.8225 
Q 148.35906 24.57375 149.46156 22.15125 
L 151.23906 18.24 
L 151.28406 18.165 
Q 150.54156 19.27125 149.79906 20.4 
Q 148.33281 22.56 147.51906 23.6625 
Q 146.34156 25.245 145.23531 26.16 
Q 144.13281 27.07125 143.19906 27.07125 
z
M 143.91906 26.565 
Q 144.59031 26.565 145.50156 25.71375 
Q 146.41281 24.8625 147.06156 24 
Q 147.71031 23.13375 148.62156 21.84 
Q 149.36406 20.71125 150.11031 19.605 
Q 150.90156 18.43125 151.67031 17.25375 
Q 151.76406 15.81375 151.16406 15.18 
Q 150.56406 14.5425 149.58156 14.5425 
Q 148.67031 14.5425 147.77031 14.92875 
Q 146.87031 15.31125 145.98156 16.08 
Q 144.23031 17.64 143.19531 19.98 
Q 142.16406 22.32 142.28406 24.525 
Q 142.33281 25.605 142.70406 26.085 
Q 143.07906 26.565 143.91906 26.565 
z
" style="fill: #316948; stroke: #316948; stroke-width: 0.5"/>
    <path d="M 143.19906 27.07125 
Q 142.26156 27.07125 141.68406 26.2575 
Q 141.11031 25.44 141.03906 24.045 
Q 140.94156 21.67125 142.19031 19.41375 
Q 143.46156 17.1825 145.50156 15.78 
Q 147.54156 14.37375 149.51031 14.37375 
Q 150.49281 14.37375 151.21281 14.82 
Q 151.93281 15.2625 152.17281 16.32 
L 154.11906 14.37375 
L 149.94156 23.49375 
Q 149.15031 25.17375 149.61531 26.08875 
Q 150.08406 27 151.88406 27 
L 151.91031 27.07125 
Q 149.51031 27.07125 148.93281 25.8225 
Q 148.35906 24.57375 149.46156 22.15125 
L 151.23906 18.24 
L 151.28406 18.165 
Q 150.54156 19.27125 149.79906 20.4 
Q 148.33281 22.56 147.51906 23.6625 
Q 146.34156 25.245 145.23531 26.16 
Q 144.13281 27.07125 143.19906 27.07125 
z
M 143.91906 26.565 
Q 144.59031 26.565 145.50156 25.71375 
Q 146.41281 24.8625 147.06156 24 
Q 147.71031 23.13375 148.62156 21.84 
Q 149.36406 20.71125 150.11031 19.605 
Q 150.90156 18.43125 151.67031 17.25375 
Q 151.76406 15.81375 151.16406 15.18 
Q 150.56406 14.5425 149.58156 14.5425 
Q 148.67031 14.5425 147.77031 14.92875 
Q 146.87031 15.31125 145.98156 16.08 
Q 144.23031 17.64 143.19531 19.98 
Q 142.16406 22.32 142.28406 24.525 
Q 142.33281 25.605 142.70406 26.085 
Q 143.07906 26.565 143.91906 26.565 
z
" style="fill: #316948"/>
   </g>
   <g id="text_7">
    <path d="M 158.79612 11.61375 
Q 159.25362 10.56 159.25362 9.24 
L 161.74737 7.2 
L 155.14737 22.725 
L 156.25362 20.88 
Q 157.16487 19.32 158.29362 17.805 
Q 159.65862 16.005 160.78737 15.19125 
Q 161.91612 14.37375 162.99612 14.37375 
Q 163.66737 14.37375 164.19612 14.89125 
Q 164.72487 15.405 165.00987 16.2825 
Q 165.29862 17.16 165.29862 18.21375 
Q 165.29862 20.085 164.21862 22.17375 
Q 163.13862 24.2625 161.38737 25.66875 
Q 159.63612 27.07125 157.78737 27.07125 
Q 156.49362 27.07125 155.50737 26.59125 
Q 154.52487 26.11125 154.16487 25.1025 
L 152.33862 27.07125 
L 158.79612 11.61375 
z
M 154.54737 24.21375 
Q 154.64487 25.05375 155.03862 25.66875 
Q 155.43612 26.28 156.05862 26.59125 
Q 156.68487 26.9025 157.42737 26.9025 
Q 159.32487 26.9025 160.88487 25.41375 
Q 162.44487 23.925 163.32987 21.765 
Q 164.21862 19.605 164.21862 17.805 
Q 164.21862 16.56 163.67862 15.72 
Q 163.13862 14.88 162.29862 14.88 
Q 161.69862 14.88 160.88112 15.5025 
Q 160.06737 16.125 159.03612 17.37375 
Q 157.40487 19.39125 155.65362 22.32 
L 154.54737 24.21375 
z
" style="fill: #316948; stroke: #316948; stroke-width: 0.5"/>
    <path d="M 158.79612 11.61375 
Q 159.25362 10.56 159.25362 9.24 
L 161.74737 7.2 
L 155.14737 22.725 
L 156.25362 20.88 
Q 157.16487 19.32 158.29362 17.805 
Q 159.65862 16.005 160.78737 15.19125 
Q 161.91612 14.37375 162.99612 14.37375 
Q 163.66737 14.37375 164.19612 14.89125 
Q 164.72487 15.405 165.00987 16.2825 
Q 165.29862 17.16 165.29862 18.21375 
Q 165.29862 20.085 164.21862 22.17375 
Q 163.13862 24.2625 161.38737 25.66875 
Q 159.63612 27.07125 157.78737 27.07125 
Q 156.49362 27.07125 155.50737 26.59125 
Q 154.52487 26.11125 154.16487 25.1025 
L 152.33862 27.07125 
L 158.79612 11.61375 
z
M 154.54737 24.21375 
Q 154.64487 25.05375 155.03862 25.66875 
Q 155.43612 26.28 156.05862 26.59125 
Q 156.68487 26.9025 157.42737 26.9025 
Q 159.32487 26.9025 160.88487 25.41375 
Q 162.44487 23.925 163.32987 21.765 
Q 164.21862 19.605 164.21862 17.805 
Q 164.21862 16.56 163.67862 15.72 
Q 163.13862 14.88 162.29862 14.88 
Q 161.69862 14.88 160.88112 15.5025 
Q 160.06737 16.125 159.03612 17.37375 
Q 157.40487 19.39125 155.65362 22.32 
L 154.54737 24.21375 
z
" style="fill: #316948"/>
   </g>
  </g>
 </g>
</svg>
